<?xml version="1.0" standalone="no"?><!-- Generator: Gravit.io --><svg xmlns="http://www.w3.org/2000/svg" xmlns:xlink="http://www.w3.org/1999/xlink" style="isolation:isolate" viewBox="0 0 240 240" width="240" height="240"><defs><clipPath id="_clipPath_V7RIeNDQF14QI562nzlyRgfM7n4yWxCm"><rect width="240" height="240"/></clipPath></defs><g clip-path="url(#_clipPath_V7RIeNDQF14QI562nzlyRgfM7n4yWxCm)"><g><path d=" M 65.246 93.422 L 65.246 51.023 L 50.199 51.023 L 50.199 43.254 L 88.801 43.254 L 88.801 51.023 L 73.613 51.023 L 73.613 93.422 L 65.246 93.422 Z " fill="rgb(255,255,255)"/><path d=" M 53.311 192.422 L 53.311 142.254 L 71.979 142.254 L 71.979 142.254 Q 73.982 142.254 75.898 142.518 L 75.898 142.518 L 75.898 142.518 Q 77.814 142.781 79.52 143.449 L 79.52 143.449 L 79.52 143.449 Q 81.225 144.117 82.631 145.26 L 82.631 145.26 L 82.631 145.26 Q 84.037 146.402 85.074 148.195 L 85.074 148.195 L 85.074 148.195 Q 86.111 149.988 86.674 152.484 L 86.674 152.484 L 86.674 152.484 Q 87.236 154.98 87.236 158.355 L 87.236 158.355 L 87.236 158.355 Q 87.236 160.605 86.867 162.381 L 86.867 162.381 L 86.867 162.381 Q 86.498 164.156 85.883 165.527 L 85.883 165.527 L 85.883 165.527 Q 85.268 166.898 84.477 167.918 L 84.477 167.918 L 84.477 167.918 Q 83.686 168.938 82.877 169.676 L 82.877 169.676 L 82.877 169.676 Q 80.943 171.363 78.518 172.031 L 78.518 172.031 L 78.518 172.102 L 89.1 192.422 L 79.467 192.422 L 70.08 174 L 61.748 174 L 61.748 192.422 L 53.311 192.422 Z  M 61.748 166.055 L 71.908 166.055 L 71.908 166.055 Q 78.518 166.055 78.518 157.863 L 78.518 157.863 L 78.518 157.863 Q 78.518 155.719 78.043 154.225 L 78.043 154.225 L 78.043 154.225 Q 77.568 152.73 76.672 151.816 L 76.672 151.816 L 76.672 151.816 Q 75.775 150.902 74.51 150.498 L 74.51 150.498 L 74.51 150.498 Q 73.244 150.094 71.697 150.094 L 71.697 150.094 L 61.748 150.094 L 61.748 166.055 Z " fill="rgb(255,255,255)"/><path d=" M 192.086 47.578 L 203.406 97.746 L 194.477 97.746 L 185.758 55.418 L 185.617 55.418 L 177.32 97.746 L 163.293 97.746 L 154.504 55.418 L 154.363 55.418 L 146.137 97.746 L 137.594 97.746 L 148.246 47.578 L 161.43 47.578 L 170.324 90.645 L 170.43 90.645 L 178.762 47.578 L 192.086 47.578 Z " fill="rgb(255,255,255)"/><path d=" M 146.914 192.422 L 135.594 142.254 L 144.523 142.254 L 153.242 184.582 L 153.383 184.582 L 161.68 142.254 L 175.707 142.254 L 184.496 184.582 L 184.637 184.582 L 192.863 142.254 L 201.406 142.254 L 190.754 192.422 L 177.57 192.422 L 168.676 149.355 L 168.57 149.355 L 160.238 192.422 L 146.914 192.422 Z " fill="rgb(255,255,255)"/></g></g></svg>